<?xml version="1.0" encoding="UTF-8"?>
<svg version="1.1" xmlns="http://www.w3.org/2000/svg" width="117" height="167">
<path d="M0 0 C0.474375 0.433125 0.94875 0.86625 1.4375 1.3125 C0.86397107 5.18382028 -1.04954352 7.39422796 -3.5625 10.3125 C-5.70658639 9.85305292 -7.43658069 9.38540065 -9.34375 8.28125 C-12.13372737 7.06309087 -14.28104429 7.11532248 -17.3125 7.1875 C-18.29734375 7.20554687 -19.2821875 7.22359375 -20.296875 7.2421875 C-21.04453125 7.26539063 -21.7921875 7.28859375 -22.5625 7.3125 C-22.5625 9.2925 -22.5625 11.2725 -22.5625 13.3125 C-21.0775 13.55033203 -21.0775 13.55033203 -19.5625 13.79296875 C-2.85953821 16.66418674 -2.85953821 16.66418674 2.01094055 23.5308075 C3.65417529 26.73500187 3.80108763 28.7140259 3.77807617 32.29614258 C3.77773628 34.06741264 3.77773628 34.06741264 3.77738953 35.87446594 C3.76190567 37.13921249 3.74642181 38.40395905 3.73046875 39.70703125 C3.72622391 41.00952316 3.72197906 42.31201508 3.71760559 43.65397644 C3.70619012 47.10482267 3.67675217 50.55528583 3.64349365 54.00598145 C3.61272108 57.53192972 3.59908497 61.05794032 3.58398438 64.58398438 C3.55187868 71.49364624 3.50072281 78.40305469 3.4375 85.3125 C1.62507948 85.33937279 -0.18745233 85.35883715 -2 85.375 C-3.00933594 85.38660156 -4.01867187 85.39820312 -5.05859375 85.41015625 C-7.5625 85.3125 -7.5625 85.3125 -8.5625 84.3125 C-8.64881874 82.96982587 -8.66956473 81.62275678 -8.66015625 80.27734375 C-8.65693359 79.46845703 -8.65371094 78.65957031 -8.65039062 77.82617188 C-8.64201172 76.97603516 -8.63363281 76.12589844 -8.625 75.25 C-8.62048828 74.39599609 -8.61597656 73.54199219 -8.61132812 72.66210938 C-8.59950373 70.54554337 -8.58156769 68.42901315 -8.5625 66.3125 C-13.8425 65.9825 -19.1225 65.6525 -24.5625 65.3125 C-24.5625 71.9125 -24.5625 78.5125 -24.5625 85.3125 C-28.5225 85.3125 -32.4825 85.3125 -36.5625 85.3125 C-36.68627939 78.44407701 -36.77692677 71.57630604 -36.8371582 64.70703125 C-36.86227181 62.3713042 -36.89636928 60.03565549 -36.93969727 57.70019531 C-37.00048492 54.33899586 -37.02874212 50.97883715 -37.05078125 47.6171875 C-37.07658768 46.57634003 -37.1023941 45.53549255 -37.12898254 44.46310425 C-37.13210611 36.35289961 -37.13210611 36.35289961 -34.03198242 32.60595703 C-33.21705322 31.84911621 -32.40212402 31.09227539 -31.5625 30.3125 C-27.67688576 30.88814655 -25.51636643 32.82503354 -22.5625 35.3125 C-20.1828388 36.5023306 -18.64764265 36.44599966 -16 36.4375 C-15.19433594 36.44007812 -14.38867188 36.44265625 -13.55859375 36.4453125 C-11.56307979 36.53261391 -11.56307979 36.53261391 -10.5625 35.3125 C-10.52186168 33.64632885 -10.519779 31.97861905 -10.5625 30.3125 C-11.8825 29.9825 -13.2025 29.6525 -14.5625 29.3125 C-14.5625 28.6525 -14.5625 27.9925 -14.5625 27.3125 C-15.14257812 27.27511719 -15.72265625 27.23773438 -16.3203125 27.19921875 C-24.22526593 26.53395039 -29.21847335 24.41995903 -34.5625 18.3125 C-36.35233568 12.94299295 -36.44681724 8.11514667 -33.9375 3 C-25.0287573 -7.08094569 -10.93437191 -7.20068394 0 0 Z M-24.5625 47.3125 C-24.5625 50.2825 -24.5625 53.2525 -24.5625 56.3125 C-19.2825 56.3125 -14.0025 56.3125 -8.5625 56.3125 C-8.5625 53.3425 -8.5625 50.3725 -8.5625 47.3125 C-13.8425 47.3125 -19.1225 47.3125 -24.5625 47.3125 Z " fill="#A4A5A5" transform="translate(76.5625,40.6875)"/>
<path d="M0 0 C1.22025879 -0.00287018 2.44051758 -0.00574036 3.69775391 -0.00869751 C6.27311671 -0.0107355 8.84849509 -0.00522426 11.42382812 0.00732422 C15.3610299 0.02338053 19.29720508 0.00746536 23.234375 -0.01171875 C25.73958559 -0.00973627 28.24479555 -0.00589251 30.75 0 C32.5127124 -0.00910904 32.5127124 -0.00910904 34.31103516 -0.0184021 C41.35803297 0.04210568 46.08183791 0.43361575 51.49645996 5.30838013 C54.32719151 9.96472107 53.93314154 14.27553436 53.89257812 19.62695312 C53.8995874 20.76081955 53.90659668 21.89468597 53.91381836 23.06291199 C53.93142143 26.81041971 53.91976654 30.55717211 53.90625 34.3046875 C53.90894423 36.90873357 53.91282606 39.51277866 53.91784668 42.11682129 C53.92511781 47.57422059 53.91554967 53.03140316 53.89648438 58.48876953 C53.87471634 64.79246023 53.88176812 71.09563339 53.90379 77.39931154 C53.92414921 83.47076038 53.9219689 89.54198031 53.91026306 95.6134491 C53.90759329 98.19386365 53.91087429 100.7742914 53.92018127 103.35469055 C53.93033126 106.9601244 53.91486555 110.56456227 53.89257812 114.16992188 C53.90067505 115.23812668 53.90877197 116.30633148 53.91711426 117.40690613 C53.86655937 121.81775203 53.83292167 124.60794947 51.59265137 128.47521973 C47.53168051 131.99702277 44.86651044 132.64933165 39.49243164 132.6730957 C38.30762711 132.68262772 37.12282257 132.69215973 35.90211487 132.70198059 C33.98797035 132.70061348 33.98797035 132.70061348 32.03515625 132.69921875 C30.72091171 132.70350388 29.40666718 132.707789 28.05259705 132.71220398 C25.27273522 132.71965721 22.49300041 132.7193815 19.71313477 132.71411133 C16.15771872 132.70831793 12.60282384 132.72524818 9.04749393 132.748456 C5.64752642 132.76676466 2.24767278 132.76300747 -1.15234375 132.76171875 C-2.42641586 132.7709285 -3.70048798 132.78013824 -5.01316833 132.78962708 C-6.20112503 132.78339828 -7.38908173 132.77716949 -8.61303711 132.77075195 C-9.65576279 132.77138138 -10.69848846 132.7720108 -11.77281189 132.7726593 C-16.09337144 132.20577959 -18.53035347 130.62227829 -21.4122467 127.4002533 C-23.28054406 122.77583006 -23.05028286 118.31151471 -23.02905273 113.36938477 C-23.03591599 112.25663177 -23.04277924 111.14387878 -23.04985046 109.99740601 C-23.06814904 106.31975539 -23.06427643 102.64253012 -23.05859375 98.96484375 C-23.06315405 96.40803386 -23.06845916 93.8512252 -23.07447815 91.29441833 C-23.08341529 85.93539882 -23.081213 80.57653425 -23.07104492 75.2175293 C-23.05956559 69.03088728 -23.073638 62.84467887 -23.1004414 56.65809399 C-23.12529817 50.69668222 -23.12777161 44.73540483 -23.12132454 38.77393913 C-23.12117112 36.24179297 -23.12723245 33.70963854 -23.13961601 31.17752266 C-23.15449141 27.63698184 -23.14387295 24.09739569 -23.12670898 20.55688477 C-23.13637695 19.51097672 -23.14604492 18.46506866 -23.15600586 17.38746643 C-23.09529657 11.40767869 -22.61852732 7.94848677 -18.625 3.3984375 C-13.09953224 -0.75553023 -6.61162133 -0.03416639 0 0 Z M-14.93835449 8.76853943 C-17.62368233 12.9556306 -17.18136015 17.10608989 -17.14257812 21.97851562 C-17.1495874 23.05532089 -17.15659668 24.13212616 -17.16381836 25.24156189 C-17.18143792 28.80453197 -17.16976087 32.3667092 -17.15625 35.9296875 C-17.15894376 38.40303704 -17.1628252 40.87638554 -17.16784668 43.34973145 C-17.17374713 48.53485185 -17.16516077 53.71969675 -17.14648438 58.90478516 C-17.12369476 65.55660706 -17.13681468 72.20751438 -17.16077423 78.85935211 C-17.17521714 83.96711098 -17.17063303 89.0747164 -17.16026306 94.18247986 C-17.15759163 96.63533097 -17.16088008 99.08819595 -17.17018127 101.54103088 C-17.18032158 104.96718334 -17.16487956 108.39228531 -17.14257812 111.81835938 C-17.15067505 112.83562607 -17.15877197 113.85289276 -17.16711426 114.90098572 C-17.15198797 120.28830766 -17.15198797 120.28830766 -14.8585968 125.02932739 C-12.43154596 126.51701749 -11.19117864 126.89532957 -8.36987305 126.88427734 C-7.53767746 126.8904306 -6.70548187 126.89658386 -5.84806824 126.90292358 C-4.50595024 126.88136703 -4.50595024 126.88136703 -3.13671875 126.859375 C-1.73363213 126.85800034 -1.73363213 126.85800034 -0.30220032 126.8565979 C1.682455 126.85055558 3.66710092 126.8347907 5.65161133 126.81005859 C8.63853972 126.77402809 11.62420715 126.76903632 14.61132812 126.76953125 C31.88049255 127.87049658 31.88049255 127.87049658 47.375 123.3984375 C47.47929784 121.93800691 47.51461874 120.472584 47.52217102 119.00845337 C47.52932632 118.06061478 47.53648163 117.11277618 47.54385376 116.13621521 C47.54654266 115.08789017 47.54923157 114.03956512 47.55200195 112.95947266 C47.55857315 111.86199203 47.56514435 110.76451141 47.57191467 109.6337738 C47.59170157 105.98501528 47.6033213 102.33629797 47.61328125 98.6875 C47.61735678 97.44548199 47.6214323 96.20346397 47.62563133 94.92380905 C47.64435734 89.03075803 47.65891901 83.13772023 47.6672433 77.24464667 C47.67702006 70.43515917 47.70334811 63.62599637 47.74374419 56.81662333 C47.777502 50.92465452 47.78938493 45.03276563 47.79344749 39.14069748 C47.79833483 36.63117646 47.81000918 34.12165945 47.82848549 31.61220169 C47.85269464 28.1065983 47.85194518 24.60185184 47.8449707 21.09619141 C47.85778076 20.05191483 47.87059082 19.00763824 47.88378906 17.93171692 C47.87684525 16.97823868 47.86990143 16.02476044 47.86274719 15.04238892 C47.86513555 14.21315226 47.8675239 13.3839156 47.86998463 12.52955055 C47.54308772 10.2313781 47.54308772 10.2313781 45.50577068 8.63242054 C42.79885639 7.0647782 40.96410416 7.01169605 37.84375 6.99438477 C36.73580078 6.98170059 35.62785156 6.96901642 34.48632812 6.95594788 C33.29458984 6.95888351 32.10285156 6.96181915 30.875 6.96484375 C29.64716797 6.9596019 28.41933594 6.95436005 27.15429688 6.94895935 C24.55860144 6.94253651 21.96287692 6.94387949 19.3671875 6.95239258 C15.39009959 6.96090518 11.41444608 6.93213729 7.4375 6.90039062 C4.9166671 6.89877866 2.39583165 6.89935605 -0.125 6.90234375 C-1.31673828 6.89110977 -2.50847656 6.87987579 -3.73632812 6.86830139 C-5.39825195 6.88237282 -5.39825195 6.88237282 -7.09375 6.89672852 C-8.55458008 6.89697777 -8.55458008 6.89697777 -10.04492188 6.89723206 C-12.68797631 7.26066292 -12.68797631 7.26066292 -14.93835449 8.76853943 Z " fill="#E7E7E7" transform="translate(44.625,15.6015625)"/>
<path d="M0 0 C0.474375 0.433125 0.94875 0.86625 1.4375 1.3125 C0.86397107 5.18382028 -1.04954352 7.39422796 -3.5625 10.3125 C-5.70658639 9.85305292 -7.43658069 9.38540065 -9.34375 8.28125 C-12.13372737 7.06309087 -14.28104429 7.11532248 -17.3125 7.1875 C-18.29734375 7.20554687 -19.2821875 7.22359375 -20.296875 7.2421875 C-21.04453125 7.26539063 -21.7921875 7.28859375 -22.5625 7.3125 C-22.5625 9.2925 -22.5625 11.2725 -22.5625 13.3125 C-21.0775 13.55033203 -21.0775 13.55033203 -19.5625 13.79296875 C-10.91561833 15.27935676 -3.75801531 16.85476499 2.4375 23.4375 C4.02072296 27.98926602 3.66307463 32.54201439 3.4375 37.3125 C2.7775 37.3125 2.1175 37.3125 1.4375 37.3125 C1.4375 37.9725 1.4375 38.6325 1.4375 39.3125 C0.7775 39.3125 0.1175 39.3125 -0.5625 39.3125 C-0.76875 39.910625 -0.975 40.50875 -1.1875 41.125 C-3.14661038 44.24176651 -5.16657404 44.93156791 -8.5625 46.3125 C-11.30843041 46.59742869 -13.76747517 46.73403306 -16.5 46.6875 C-17.17740234 46.69910156 -17.85480469 46.71070313 -18.55273438 46.72265625 C-23.65845333 46.6932849 -27.11830209 45.63585916 -31.5625 43.3125 C-33 41.125 -33 41.125 -33.5625 39.3125 C-34.2225 39.3125 -34.8825 39.3125 -35.5625 39.3125 C-34.19266497 36.15134224 -33.5734362 35.3197908 -30.5625 33.3125 C-27.13692292 33.64400746 -25.25040448 35.29657164 -22.5625 37.3125 C-18.74313853 38.81296344 -14.60029954 38.37979666 -10.5625 38.3125 C-10.5625 35.6725 -10.5625 33.0325 -10.5625 30.3125 C-11.8825 29.9825 -13.2025 29.6525 -14.5625 29.3125 C-14.5625 28.6525 -14.5625 27.9925 -14.5625 27.3125 C-15.14257812 27.27511719 -15.72265625 27.23773438 -16.3203125 27.19921875 C-24.22526593 26.53395039 -29.21847335 24.41995903 -34.5625 18.3125 C-36.35233568 12.94299295 -36.44681724 8.11514667 -33.9375 3 C-25.0287573 -7.08094569 -10.93437191 -7.20068394 0 0 Z " fill="#DEDEDE" transform="translate(76.5625,40.6875)"/>
<path d="M0 0 C1.22025879 -0.00287018 2.44051758 -0.00574036 3.69775391 -0.00869751 C6.27311671 -0.0107355 8.84849509 -0.00522426 11.42382812 0.00732422 C15.3610299 0.02338053 19.29720508 0.00746536 23.234375 -0.01171875 C25.73958559 -0.00973627 28.24479555 -0.00589251 30.75 0 C32.5127124 -0.00910904 32.5127124 -0.00910904 34.31103516 -0.0184021 C41.35803297 0.04210568 46.08183791 0.43361575 51.49645996 5.30838013 C54.32719151 9.96472107 53.93314154 14.27553436 53.89257812 19.62695312 C53.8995874 20.76081955 53.90659668 21.89468597 53.91381836 23.06291199 C53.93142143 26.81041971 53.91976654 30.55717211 53.90625 34.3046875 C53.90894423 36.90873357 53.91282606 39.51277866 53.91784668 42.11682129 C53.92511781 47.57422059 53.91554967 53.03140316 53.89648438 58.48876953 C53.87471634 64.79246023 53.88176812 71.09563339 53.90379 77.39931154 C53.92414921 83.47076038 53.9219689 89.54198031 53.91026306 95.6134491 C53.90759329 98.19386365 53.91087429 100.7742914 53.92018127 103.35469055 C53.93033126 106.9601244 53.91486555 110.56456227 53.89257812 114.16992188 C53.90067505 115.23812668 53.90877197 116.30633148 53.91711426 117.40690613 C53.86655937 121.81775203 53.83292167 124.60794947 51.59265137 128.47521973 C47.53168051 131.99702277 44.86651044 132.64933165 39.49243164 132.6730957 C38.30762711 132.68262772 37.12282257 132.69215973 35.90211487 132.70198059 C33.98797035 132.70061348 33.98797035 132.70061348 32.03515625 132.69921875 C30.72091171 132.70350388 29.40666718 132.707789 28.05259705 132.71220398 C25.27273522 132.71965721 22.49300041 132.7193815 19.71313477 132.71411133 C16.15771872 132.70831793 12.60282384 132.72524818 9.04749393 132.748456 C5.64752642 132.76676466 2.24767278 132.76300747 -1.15234375 132.76171875 C-2.42641586 132.7709285 -3.70048798 132.78013824 -5.01316833 132.78962708 C-6.20112503 132.78339828 -7.38908173 132.77716949 -8.61303711 132.77075195 C-9.65576279 132.77138138 -10.69848846 132.7720108 -11.77281189 132.7726593 C-16.09337144 132.20577959 -18.53035347 130.62227829 -21.4122467 127.4002533 C-23.28054406 122.77583006 -23.05028286 118.31151471 -23.02905273 113.36938477 C-23.03591599 112.25663177 -23.04277924 111.14387878 -23.04985046 109.99740601 C-23.06814904 106.31975539 -23.06427643 102.64253012 -23.05859375 98.96484375 C-23.06315405 96.40803386 -23.06845916 93.8512252 -23.07447815 91.29441833 C-23.08341529 85.93539882 -23.081213 80.57653425 -23.07104492 75.2175293 C-23.05956559 69.03088728 -23.073638 62.84467887 -23.1004414 56.65809399 C-23.12529817 50.69668222 -23.12777161 44.73540483 -23.12132454 38.77393913 C-23.12117112 36.24179297 -23.12723245 33.70963854 -23.13961601 31.17752266 C-23.15449141 27.63698184 -23.14387295 24.09739569 -23.12670898 20.55688477 C-23.13637695 19.51097672 -23.14604492 18.46506866 -23.15600586 17.38746643 C-23.09529657 11.40767869 -22.61852732 7.94848677 -18.625 3.3984375 C-13.09953224 -0.75553023 -6.61162133 -0.03416639 0 0 Z M-15.47409058 4.42979431 C-15.85389069 5.07944656 -16.2336908 5.72909882 -16.625 6.3984375 C-15.88441849 6.39399628 -15.14383698 6.38955505 -14.3808136 6.38497925 C-7.39222358 6.34485978 -0.40365083 6.31443135 6.58502483 6.29481316 C10.17774568 6.28438809 13.77037115 6.27025234 17.36303711 6.24755859 C20.83193203 6.22578447 24.30073537 6.21385927 27.76969337 6.20868301 C29.73334908 6.20320416 31.69696808 6.18759847 33.66056824 6.17184448 C34.8614357 6.17169342 36.06230316 6.17154236 37.29956055 6.17138672 C38.35435104 6.1669455 39.40914154 6.16250427 40.49589539 6.15792847 C43.375 6.3984375 43.375 6.3984375 48.375 8.3984375 C48.375 46.0184375 48.375 83.6384375 48.375 122.3984375 C48.125 66.5859375 48.125 66.5859375 48.07714844 48.94995117 C48.04393671 43.74214566 48.04393671 43.74214566 48.00543213 38.53437805 C47.99079867 36.2112111 47.98404596 33.88798653 47.98345947 31.56477356 C47.98105272 28.04954891 47.9537987 24.53531716 47.92089844 21.02026367 C47.92592251 19.9818014 47.93094658 18.94333914 47.93612289 17.87340832 C47.92221638 16.92886445 47.90830986 15.98432058 47.89398193 15.01115417 C47.89029476 14.18799304 47.88660759 13.36483191 47.88280869 12.51672649 C47.53924911 10.23068599 47.53924911 10.23068599 45.50381851 8.63437271 C42.79794564 7.06341514 40.96475067 7.01169963 37.84375 6.99438477 C36.73580078 6.98170059 35.62785156 6.96901642 34.48632812 6.95594788 C33.29458984 6.95888351 32.10285156 6.96181915 30.875 6.96484375 C29.64716797 6.9596019 28.41933594 6.95436005 27.15429688 6.94895935 C24.55860144 6.94253651 21.96287692 6.94387949 19.3671875 6.95239258 C15.39009959 6.96090518 11.41444608 6.93213729 7.4375 6.90039062 C4.9166671 6.89877866 2.39583165 6.89935605 -0.125 6.90234375 C-1.31673828 6.89110977 -2.50847656 6.87987579 -3.73632812 6.86830139 C-5.39825195 6.88237282 -5.39825195 6.88237282 -7.09375 6.89672852 C-8.55458008 6.89697777 -8.55458008 6.89697777 -10.04492188 6.89723206 C-12.68687017 7.26207131 -12.68687017 7.26207131 -14.94232178 8.75883484 C-17.64098555 12.99220518 -17.14753326 17.21878285 -17.07910156 22.13378906 C-17.07968567 23.22677307 -17.08026978 24.31975708 -17.08087158 25.44586182 C-17.07808362 29.06058447 -17.04695649 32.6744838 -17.015625 36.2890625 C-17.00816518 38.79440867 -17.00247103 41.29976066 -16.99847412 43.80511475 C-16.98475921 49.72666469 -16.95323004 55.64795023 -16.91307616 61.56936431 C-16.86396038 68.97327359 -16.84249229 76.37721951 -16.8203125 83.78125 C-16.77740593 96.9871294 -16.70989794 110.19276473 -16.625 123.3984375 C-18.21034447 121.81309303 -17.76616197 120.18854276 -17.78321838 117.98826599 C-17.7930072 117.03609192 -17.80279602 116.08391785 -17.81288147 115.10289001 C-17.81863693 114.04985184 -17.8243924 112.99681366 -17.83032227 111.91186523 C-17.84022186 110.80956573 -17.85012146 109.70726624 -17.86032104 108.57156372 C-17.89204487 104.90840848 -17.91673633 101.24524024 -17.94140625 97.58203125 C-17.96196639 95.049969 -17.9829626 92.51791025 -18.00437927 89.9858551 C-18.05403539 83.98998747 -18.09927541 77.99410208 -18.14240164 71.99818522 C-18.19173272 65.1735924 -18.24666611 58.34904834 -18.30208123 51.52450264 C-18.41597558 37.48252639 -18.52279831 23.44050337 -18.625 9.3984375 C-18.955 10.0584375 -19.285 10.7184375 -19.625 11.3984375 C-20.285 11.3984375 -20.945 11.3984375 -21.625 11.3984375 C-21.71851512 25.89773549 -21.78874818 40.39698659 -21.83224869 54.89652443 C-21.85285841 61.62919838 -21.88094818 68.36168474 -21.92675781 75.09423828 C-21.97094249 81.59108146 -21.99413575 88.08780292 -22.00450897 94.58478928 C-22.01190176 97.06392866 -22.02633801 99.54305734 -22.04792023 102.0221138 C-22.07694183 105.49365569 -22.08095636 108.96439154 -22.07910156 112.43603516 C-22.09348267 113.46174622 -22.10786377 114.48745728 -22.12268066 115.54425049 C-22.08950254 121.28023839 -21.73111025 125.01237266 -17.625 129.3984375 C-14.06720487 131.41534627 -10.96618088 131.65759894 -6.92016602 131.68896484 C-5.79872696 131.70172455 -4.6772879 131.71448425 -3.52186584 131.72763062 C-1.71860085 131.73096909 -1.71860085 131.73096909 0.12109375 131.734375 C1.36496353 131.7410318 2.60883331 131.7476886 3.89039612 131.75454712 C6.51879397 131.76466431 9.14721746 131.76936443 11.77563477 131.76904297 C14.46536049 131.7688801 17.15440751 131.78281525 19.84399414 131.81005859 C23.72823891 131.84669568 27.61169347 131.8565153 31.49609375 131.859375 C32.69624619 131.87374603 33.89639862 131.88811707 35.13291931 131.90292358 C43.57374838 131.87199145 43.57374838 131.87199145 50.375 127.3984375 C52.21215414 124.39908222 52.6269808 122.15576256 52.63569641 118.66114807 C52.64278122 117.71207581 52.64986603 116.76300354 52.65716553 115.78517151 C52.65468811 114.75077438 52.65221069 113.71637726 52.6496582 112.65063477 C52.6573246 111.00857559 52.6573246 111.00857559 52.66514587 109.33334351 C52.67905928 105.71045482 52.6780838 102.08775599 52.67578125 98.46484375 C52.67966712 95.94905018 52.68400157 93.43325727 52.68876648 90.91746521 C52.69623239 85.64247011 52.69607273 80.36752425 52.69067383 75.0925293 C52.68463365 68.99968787 52.6969471 62.90707735 52.7182439 56.81427532 C52.73799521 50.94737494 52.74103233 45.08056494 52.73750877 39.2136364 C52.73802267 36.71974076 52.74327308 34.22584147 52.75332069 31.73196602 C52.76564039 28.24634067 52.75891984 24.76125137 52.74731445 21.27563477 C52.75495819 20.24326187 52.76260193 19.21088898 52.77047729 18.14723206 C52.79150969 11.23152515 52.79150969 11.23152515 49.375 5.3984375 C45.74290106 2.60308882 43.06554263 2.01863844 38.53076172 1.99438477 C36.80404739 1.97535851 36.80404739 1.97535851 35.04244995 1.95594788 C33.19225754 1.96035133 33.19225754 1.96035133 31.3046875 1.96484375 C30.03150665 1.9596019 28.75832581 1.95436005 27.44656372 1.94895935 C24.75816816 1.94254089 22.07062318 1.94243219 19.38232422 1.95239258 C15.93753668 1.96391258 12.49376964 1.94361753 9.04911613 1.91447544 C5.7593009 1.89173248 2.46956298 1.8985778 -0.8203125 1.90234375 C-2.05782257 1.89110977 -3.29533264 1.87987579 -4.57034302 1.86830139 C-5.71518158 1.87768234 -6.86002014 1.88706329 -8.03955078 1.89672852 C-9.04817169 1.89689468 -10.0567926 1.89706085 -11.09597778 1.89723206 C-13.78483093 2.16967168 -13.78483093 2.16967168 -15.47409058 4.42979431 Z " fill="#606060" transform="translate(44.625,15.6015625)"/>
<path d="M0 0 C1.00560471 -0.00318237 2.01120941 -0.00636475 3.04728699 -0.00964355 C4.18889786 -0.0222522 5.33050873 -0.03486084 6.50671387 -0.04785156 C7.74108688 -0.03975464 8.9754599 -0.03165771 10.24723816 -0.02331543 C12.15058174 -0.02905579 12.15058174 -0.02905579 14.09237671 -0.03491211 C16.78037275 -0.03763738 19.46691951 -0.03224264 22.15470886 -0.0135498 C25.58809736 0.00917242 29.02023047 -0.00383652 32.45357227 -0.02783966 C35.73900469 -0.04584028 39.02428928 -0.03320176 42.30973816 -0.02331543 C43.53803848 -0.03141235 44.76633881 -0.03950928 46.03186035 -0.04785156 C56.87009783 0.07086909 56.87009783 0.07086909 61.47770691 4.50793457 C63.32682192 7.52256826 63.72602347 9.76548287 63.71821594 13.27886963 C63.72096527 14.23516769 63.7237146 15.19146576 63.72654724 16.17674255 C63.71576141 17.74012108 63.71576141 17.74012108 63.70475769 19.33508301 C63.70504974 20.43782059 63.7053418 21.54055817 63.7056427 22.67671204 C63.70424875 26.32365777 63.6886842 29.9703995 63.67301941 33.61730957 C63.66928952 36.14507943 63.66644243 38.67285074 63.66444397 41.20062256 C63.65758647 47.17520395 63.6418216 53.1496977 63.62174499 59.12424397 C63.59938172 65.92709902 63.58839149 72.72995759 63.57835412 79.53284025 C63.55745522 93.52457892 63.52228191 107.51625273 63.47770691 121.50793457 C62.48770691 121.50793457 61.49770691 121.50793457 60.47770691 121.50793457 C60.14770691 83.55793457 59.81770691 45.60793457 59.47770691 6.50793457 C54.97130766 4.70537487 53.02711229 4.26141076 48.40226746 4.28088379 C47.20139999 4.28103485 46.00053253 4.28118591 44.76327515 4.28134155 C43.47665482 4.29166412 42.19003448 4.30198669 40.86442566 4.31262207 C39.52635917 4.31635545 38.18828993 4.31920089 36.85021973 4.32119751 C33.34028992 4.32880841 29.83052746 4.34843475 26.32066345 4.37060547 C22.73436242 4.39111893 19.14803416 4.40021095 15.56169128 4.41027832 C8.53362805 4.43168328 1.50567553 4.46578826 -5.52229309 4.50793457 C-3.91449321 1.76152757 -3.18976549 0.64234889 0 0 Z " fill="#EDEDED" transform="translate(33.52229309082031,17.4920654296875)"/>
<path d="M0 0 C1.22025879 -0.00287018 2.44051758 -0.00574036 3.69775391 -0.00869751 C6.27311671 -0.0107355 8.84849509 -0.00522426 11.42382812 0.00732422 C15.3610299 0.02338053 19.29720508 0.00746536 23.234375 -0.01171875 C25.73958559 -0.00973627 28.24479555 -0.00589251 30.75 0 C32.5127124 -0.00910904 32.5127124 -0.00910904 34.31103516 -0.0184021 C41.35803297 0.04210568 46.08183791 0.43361575 51.49645996 5.30838013 C54.32719151 9.96472107 53.93314154 14.27553436 53.89257812 19.62695312 C53.8995874 20.76081955 53.90659668 21.89468597 53.91381836 23.06291199 C53.93142143 26.81041971 53.91976654 30.55717211 53.90625 34.3046875 C53.90894423 36.90873357 53.91282606 39.51277866 53.91784668 42.11682129 C53.92511781 47.57422059 53.91554967 53.03140316 53.89648438 58.48876953 C53.87471634 64.79246023 53.88176812 71.09563339 53.90379 77.39931154 C53.92414921 83.47076038 53.9219689 89.54198031 53.91026306 95.6134491 C53.90759329 98.19386365 53.91087429 100.7742914 53.92018127 103.35469055 C53.93033126 106.9601244 53.91486555 110.56456227 53.89257812 114.16992188 C53.90067505 115.23812668 53.90877197 116.30633148 53.91711426 117.40690613 C53.86655937 121.81775203 53.83292167 124.60794947 51.59265137 128.47521973 C47.52092879 132.006347 44.84946703 132.64940383 39.46069336 132.6730957 C38.26943344 132.68262772 37.07817352 132.69215973 35.85081482 132.70198059 C34.56844437 132.70106918 33.28607391 132.70015778 31.96484375 132.69921875 C29.98636192 132.70564644 29.98636192 132.70564644 27.96791077 132.71220398 C25.17965672 132.71965555 22.39152933 132.71938192 19.60327148 132.71411133 C16.02972402 132.70830664 12.45669317 132.72527618 8.88323116 132.748456 C5.47291329 132.76672022 2.06271032 132.76300862 -1.34765625 132.76171875 C-2.63205093 132.7709285 -3.91644562 132.78013824 -5.23976135 132.78962708 C-6.42786911 132.78339828 -7.61597687 132.77716949 -8.84008789 132.77075195 C-9.88725479 132.77138138 -10.93442169 132.7720108 -12.01332092 132.7726593 C-14.95552608 132.35107714 -15.840031 131.7138085 -17.625 129.3984375 C-16.9179895 129.56011414 -16.210979 129.72179077 -15.48254395 129.8883667 C-12.56221261 130.40964503 -9.86900566 130.53904848 -6.90429688 130.55957031 C-5.77963013 130.56917786 -4.65496338 130.5787854 -3.49621582 130.58868408 C-2.2909021 130.59293396 -1.08558838 130.59718384 0.15625 130.6015625 C1.40249146 130.60726257 2.64873291 130.61296265 3.93273926 130.61883545 C6.5653397 130.62827203 9.19795188 130.63481409 11.83056641 130.63867188 C14.52699194 130.64307287 17.22310039 130.65703129 19.91943359 130.6796875 C23.81097129 130.71010128 27.70210681 130.72071315 31.59375 130.7265625 C32.79906372 130.7389093 34.00437744 130.7512561 35.24621582 130.76397705 C36.37088257 130.76097595 37.49554932 130.75797485 38.65429688 130.75488281 C39.64071167 130.75852844 40.62712646 130.76217407 41.64343262 130.76593018 C44.92421929 130.32454803 46.74886604 129.39945968 49.375 127.3984375 C51.22837022 124.4145578 51.62700522 122.14597092 51.63569641 118.66114807 C51.64278122 117.71207581 51.64986603 116.76300354 51.65716553 115.78517151 C51.65468811 114.75077438 51.65221069 113.71637726 51.6496582 112.65063477 C51.6573246 111.00857559 51.6573246 111.00857559 51.66514587 109.33334351 C51.67905928 105.71045482 51.6780838 102.08775599 51.67578125 98.46484375 C51.67966712 95.94905018 51.68400157 93.43325727 51.68876648 90.91746521 C51.69623239 85.64247011 51.69607273 80.36752425 51.69067383 75.0925293 C51.68463365 68.99968787 51.6969471 62.90707735 51.7182439 56.81427532 C51.73799521 50.94737494 51.74103233 45.08056494 51.73750877 39.2136364 C51.73802267 36.71974076 51.74327308 34.22584147 51.75332069 31.73196602 C51.76564039 28.24634067 51.75891984 24.76125137 51.74731445 21.27563477 C51.75495819 20.24326187 51.76260193 19.21088898 51.77047729 18.14723206 C51.7876428 11.23842746 51.7876428 11.23842746 48.375 5.3984375 C45.24510132 3.18867125 42.47676825 3.13663296 38.70776367 3.10791016 C37.56945602 3.09515045 36.43114838 3.08239075 35.25834656 3.06924438 C34.03227188 3.06701874 32.8061972 3.06479309 31.54296875 3.0625 C30.27785965 3.0558432 29.01275055 3.0491864 27.70930481 3.04232788 C25.03189024 3.03220011 22.35488169 3.02664581 19.67749023 3.02783203 C16.26113397 3.0280349 12.84561262 3.00076342 9.42945385 2.96628761 C6.15482414 2.93858079 2.88019969 2.93986684 -0.39453125 2.9375 C-1.61453323 2.92312897 -2.83453522 2.90875793 -4.09150696 2.89395142 C-10.82484621 2.93004941 -15.1481075 3.35967323 -20.625 7.3984375 C-19.67041232 4.63013322 -18.743855 3.48184319 -16.328125 1.78662109 C-10.89670837 -0.24944397 -5.75489601 -0.02973915 0 0 Z " fill="#6B6B6B" transform="translate(44.625,15.6015625)"/>
<path d="M0 0 C0.66 0.33 1.32 0.66 2 1 C2 4 2 4 1 6 C0.89611373 7.49481021 0.85351382 8.99409228 0.84178162 10.49246216 C0.8319928 11.43759674 0.82220398 12.38273132 0.81211853 13.35650635 C0.80636307 14.39659851 0.8006076 15.43669067 0.79467773 16.50830078 C0.78477814 17.60099274 0.77487854 18.69368469 0.76467896 19.81948853 C0.7329969 23.44474086 0.70828002 27.07000632 0.68359375 30.6953125 C0.66303001 33.20352527 0.6420337 35.71173452 0.62062073 38.21994019 C0.57099567 44.1555654 0.5257459 50.09121383 0.48259836 56.02688873 C0.42839825 63.44634784 0.36743626 70.86574876 0.30664062 78.28515625 C0.19898582 91.52339793 0.09736924 104.76167888 0 118 C-0.33 118 -0.66 118 -1 118 C-1.33 81.37 -1.66 44.74 -2 7 C-2.66 7 -3.32 7 -4 7 C-3.93947597 21.53402973 -3.8617866 36.06788062 -3.76428509 50.60171127 C-3.71931769 57.3500182 -3.67990531 64.09827223 -3.65356445 70.84667969 C-3.62813886 77.35660511 -3.58724048 83.86632581 -3.53681374 90.37610626 C-3.52010077 92.86241996 -3.50861418 95.34877435 -3.50238609 97.83513641 C-3.49279335 101.31189238 -3.46479106 104.78804098 -3.43237305 108.26464844 C-3.43380814 109.29755005 -3.43524323 110.33045166 -3.4367218 111.39465332 C-3.42418365 112.34253723 -3.41164551 113.29042114 -3.39872742 114.26702881 C-3.39411845 115.08926815 -3.38950949 115.91150749 -3.38476086 116.75866318 C-2.91317376 119.5057865 -1.72828728 120.85681754 0 123 C0 123.66 0 124.32 0 125 C-0.66 125 -1.32 125 -2 125 C-6.11303678 120.34429486 -5.4362644 114.80764045 -5.41992188 108.95507812 C-5.42839142 107.84071884 -5.43686096 106.72635956 -5.44558716 105.57823181 C-5.46898082 101.89578838 -5.46997881 98.21376211 -5.46875 94.53125 C-5.47584937 91.97204419 -5.48354804 89.41283998 -5.49182129 86.8536377 C-5.50527105 81.49042718 -5.50701337 76.12737077 -5.50097656 70.76416016 C-5.49433214 64.56947079 -5.5172196 58.3753763 -5.55429029 52.18080759 C-5.58869844 46.21405396 -5.59532344 40.24748376 -5.59120178 34.28062439 C-5.59289693 31.74484992 -5.60257717 29.20906788 -5.62034607 26.6733551 C-5.64244555 23.1300616 -5.63287837 19.58820985 -5.61523438 16.04492188 C-5.62849762 14.99541855 -5.64176086 13.94591522 -5.65542603 12.86460876 C-5.56367634 4.94697402 -5.56367634 4.94697402 -2.46154785 1.80969238 C-1.24308167 0.91389465 -1.24308167 0.91389465 0 0 Z " fill="#888888" transform="translate(27,20)"/>
<path d="M0 0 C3.88561424 0.57564655 6.04613357 2.51253354 9 5 C11.36613456 6.18306728 12.86780736 6.13354608 15.5 6.125 C16.2940625 6.12757812 17.088125 6.13015625 17.90625 6.1328125 C20.05918534 6.13277996 20.05918534 6.13277996 22 5 C21.67 6.32 21.34 7.64 21 9 C15.0163872 9.31492699 11.3285657 8.77085416 6 6 C5.34 5.34 4.68 4.68 4 4 C0.70285207 4.32971479 -0.6226839 4.6226839 -3 7 C-3.33016506 9.09980044 -3.33016506 9.09980044 -3.31884766 11.54150391 C-3.33871735 12.48232819 -3.35858704 13.42315247 -3.37905884 14.39248657 C-3.39061005 15.41023163 -3.40216125 16.42797668 -3.4140625 17.4765625 C-3.43342865 18.51694672 -3.4527948 19.55733093 -3.4727478 20.62924194 C-3.53265727 23.9610772 -3.57897452 27.29294679 -3.625 30.625 C-3.6631693 32.88022363 -3.7022204 35.13543252 -3.7421875 37.390625 C-3.83836819 42.926964 -3.92235716 48.46337124 -4 54 C-1.03 54 1.94 54 5 54 C5 47.4 5 40.8 5 34 C11.6 34 18.2 34 25 34 C25 40.6 25 47.2 25 54 C27.97 54 30.94 54 34 54 C34 39.48 34 24.96 34 10 C33.34 9.67 32.68 9.34 32 9 C32.66 8.34 33.32 7.68 34 7 C35.18695418 9.37390836 35.12075833 10.80244951 35.11352539 13.44970703 C35.11344986 14.37051056 35.11337433 15.29131409 35.11329651 16.24002075 C35.10813522 17.23589203 35.10297394 18.23176331 35.09765625 19.2578125 C35.0962413 20.27600067 35.09482635 21.29418884 35.09336853 22.3432312 C35.087759 25.60385035 35.07520488 28.86440151 35.0625 32.125 C35.05748623 34.33203026 35.05292311 36.53906159 35.04882812 38.74609375 C35.03778648 44.16408581 35.02103905 49.58203805 35 55 C33.18757948 55.02687279 31.37504767 55.04633715 29.5625 55.0625 C28.55316406 55.07410156 27.54382813 55.08570313 26.50390625 55.09765625 C24 55 24 55 23 54 C22.91368126 52.65732587 22.89293527 51.31025678 22.90234375 49.96484375 C22.90556641 49.15595703 22.90878906 48.34707031 22.91210938 47.51367188 C22.92048828 46.66353516 22.92886719 45.81339844 22.9375 44.9375 C22.94201172 44.08349609 22.94652344 43.22949219 22.95117188 42.34960938 C22.96299627 40.23304337 22.98093231 38.11651315 23 36 C17.72 35.67 12.44 35.34 7 35 C7 41.6 7 48.2 7 55 C3.04 55 -0.92 55 -5 55 C-5.12377939 48.13157701 -5.21442677 41.26380604 -5.2746582 34.39453125 C-5.29977181 32.0588042 -5.33386928 29.72315549 -5.37719727 27.38769531 C-5.43798492 24.02649586 -5.46624212 20.66633715 -5.48828125 17.3046875 C-5.51408768 16.26384003 -5.5398941 15.22299255 -5.56648254 14.15060425 C-5.56960611 6.04039961 -5.56960611 6.04039961 -2.46948242 2.29345703 C-1.65455322 1.53661621 -0.83962402 0.77977539 0 0 Z " fill="#414242" transform="translate(45,71)"/>
<path d="M0 0 C0.474375 0.433125 0.94875 0.86625 1.4375 1.3125 C1.0625 3.25 1.0625 3.25 0.4375 5.3125 C-0.2225 5.6425 -0.8825 5.9725 -1.5625 6.3125 C-1.5625 4.6625 -1.5625 3.0125 -1.5625 1.3125 C-6.18230245 -1.37878679 -10.15216815 -2.2993633 -15.4375 -2.3125 C-16.14205322 -2.31483643 -16.84660645 -2.31717285 -17.57250977 -2.31958008 C-23.306362 -2.11998605 -26.38337669 -0.59396553 -30.27734375 3.48828125 C-31.74843204 5.3905366 -31.74843204 5.3905366 -32.5625 8.3125 C-33.2225 8.3125 -33.8825 8.3125 -34.5625 8.3125 C-34.335625 9.50875 -34.10875 10.705 -33.875 11.9375 C-33.74738281 12.61039063 -33.61976562 13.28328125 -33.48828125 13.9765625 C-31.8551322 18.0973352 -29.64288595 21.34621038 -25.59350586 23.22705078 C-23.36832069 23.94029292 -21.14917069 24.52626637 -18.875 25.0625 C-10.76682961 27.10817039 -10.76682961 27.10817039 -8.5625 29.3125 C-8.4375 32.4375 -8.4375 32.4375 -8.5625 35.3125 C-8.8925 35.3125 -9.2225 35.3125 -9.5625 35.3125 C-10.2225 33.3325 -10.8825 31.3525 -11.5625 29.3125 C-12.5525 29.3125 -13.5425 29.3125 -14.5625 29.3125 C-14.5625 28.6525 -14.5625 27.9925 -14.5625 27.3125 C-15.14257812 27.27511719 -15.72265625 27.23773438 -16.3203125 27.19921875 C-24.22526593 26.53395039 -29.21847335 24.41995903 -34.5625 18.3125 C-36.35233568 12.94299295 -36.44681724 8.11514667 -33.9375 3 C-25.0287573 -7.08094569 -10.93437191 -7.20068394 0 0 Z " fill="#4D4E4E" transform="translate(76.5625,40.6875)"/>
<path d="M0 0 C0.495 1.485 0.495 1.485 1 3 C-3.28498092 7.28498092 -20.46354931 5.08976869 -26.30859375 5.09765625 C-30.35161702 5.09480536 -34.39451522 5.07948598 -38.4375 5.0625 C-40.5371083 5.05747197 -42.63671777 5.05291138 -44.73632812 5.04882812 C-49.82424832 5.03793267 -54.91211081 5.02074085 -60 5 C-60.66 3.68 -61.32 2.36 -62 1 C-61.01 1.33 -60.02 1.66 -59 2 C-57.62191978 2.09546337 -56.23976236 2.13804822 -54.85839844 2.14526367 C-54.02612732 2.15164352 -53.1938562 2.15802338 -52.33636475 2.16459656 C-51.43645813 2.16570938 -50.53655151 2.1668222 -49.609375 2.16796875 C-48.20416595 2.17296135 -48.20416595 2.17296135 -46.77056885 2.17805481 C-44.77999359 2.18312322 -42.78940983 2.18546316 -40.79882812 2.18530273 C-37.80323481 2.18746163 -34.80802677 2.20554063 -31.8125 2.22460938 C-21.02827139 2.25526553 -10.63990651 1.84764217 0 0 Z " fill="#6D6D6D" transform="translate(91,139)"/>
<path d="M0 0 C1.22500214 -0.0004985 2.45000427 -0.00099701 3.71212769 -0.00151062 C6.29589464 0.00082555 8.87966405 0.01052702 11.46337891 0.02709961 C15.4224068 0.05073778 19.38076299 0.04765096 23.33984375 0.04101562 C25.85156652 0.04659109 28.36328646 0.05370014 30.875 0.0625 C32.06046417 0.06158859 33.24592834 0.06067719 34.46731567 0.05973816 C36.11955643 0.07403618 36.11955643 0.07403618 37.80517578 0.08862305 C38.77303009 0.09323044 39.7408844 0.09783783 40.73806763 0.10258484 C43.38435548 0.37137328 45.03401196 1.01586649 47.3046875 2.36328125 C46.9746875 3.02328125 46.6446875 3.68328125 46.3046875 4.36328125 C45.3146875 3.86828125 45.3146875 3.86828125 44.3046875 3.36328125 C42.49374771 3.25201468 40.67876964 3.20405385 38.86450195 3.1862793 C37.72604324 3.17344406 36.58758453 3.16060883 35.41462708 3.14738464 C34.17822983 3.13999771 32.94183258 3.13261078 31.66796875 3.125 C29.76606026 3.11289238 29.76606026 3.11289238 27.82572937 3.10054016 C25.13646786 3.08668699 22.44732944 3.07567497 19.75805664 3.06811523 C16.32599831 3.05708098 12.89459377 3.02271831 9.46276569 2.98294353 C6.17706527 2.95037919 2.89130594 2.94598906 -0.39453125 2.9375 C-2.23394539 2.91123787 -2.23394539 2.91123787 -4.11051941 2.88444519 C-10.86578329 2.90156757 -15.20391884 3.30263401 -20.6953125 7.36328125 C-19.74171521 4.59784912 -18.81319694 3.44627742 -16.40283203 1.74926758 C-10.94692579 -0.29032018 -5.77810225 -0.0450433 0 0 Z " fill="#464747" transform="translate(44.6953125,15.63671875)"/>
<path d="M0 0 C6.6 0.33 13.2 0.66 20 1 C20 4.63 20 8.26 20 12 C13.4 12 6.8 12 0 12 C0 8.04 0 4.08 0 0 Z M2 2 C2 4.97 2 7.94 2 11 C7.28 11 12.56 11 18 11 C18 8.03 18 5.06 18 2 C12.72 2 7.44 2 2 2 Z " fill="#454747" transform="translate(50,86)"/>
<path d="M0 0 C1.3125 2.125 1.3125 2.125 2 4 C1.01 4.33 0.02 4.66 -1 5 C-1 4.34 -1 3.68 -1 3 C-5.8931727 0.4482082 -10.72937004 0.65233514 -16.11328125 0.5859375 C-17.08283249 0.56657135 -18.05238373 0.5472052 -19.05131531 0.5272522 C-22.13828828 0.46762564 -25.22529888 0.4211386 -28.3125 0.375 C-30.40952118 0.33680466 -32.50652694 0.29775202 -34.60351562 0.2578125 C-39.73555131 0.16193791 -44.86766043 0.07784423 -50 0 C-50 -0.33 -50 -0.66 -50 -1 C-43.68323177 -1.1939548 -37.36615262 -1.37127621 -31.04858398 -1.53710938 C-28.90003931 -1.59546291 -26.75159404 -1.65760601 -24.60327148 -1.72363281 C-21.51304221 -1.81794732 -18.4227103 -1.89857172 -15.33203125 -1.9765625 C-14.37351761 -2.00875885 -13.41500397 -2.0409552 -12.42744446 -2.0741272 C-3.867948 -2.26585379 -3.867948 -2.26585379 0 0 Z " fill="#E5E5E5" transform="translate(94,21)"/>
<path d="M0 0 C3.88561424 0.57564655 6.04613357 2.51253354 9 5 C11.36613456 6.18306728 12.86780736 6.13354608 15.5 6.125 C16.2940625 6.12757812 17.088125 6.13015625 17.90625 6.1328125 C20.05918534 6.13277996 20.05918534 6.13277996 22 5 C21.67 6.32 21.34 7.64 21 9 C15.0163872 9.31492699 11.3285657 8.77085416 6 6 C5.34 5.34 4.68 4.68 4 4 C1.41645782 3.83312552 1.41645782 3.83312552 -1 4 C-0.67 2.68 -0.34 1.36 0 0 Z " fill="#717272" transform="translate(45,71)"/>
<path d="M0 0 C0.66 0.33 1.32 0.66 2 1 C2 4 2 4 1 6 C0.84777027 7.66565749 0.75082785 9.33656496 0.68359375 11.0078125 C0.64169922 11.99394531 0.59980469 12.98007812 0.55664062 13.99609375 C0.51732422 15.02863281 0.47800781 16.06117187 0.4375 17.125 C0.39431641 18.16527344 0.35113281 19.20554687 0.30664062 20.27734375 C0.2003712 22.85142528 0.09833417 25.42560508 0 28 C-0.33 28 -0.66 28 -1 28 C-1.03758423 27.07719238 -1.03758423 27.07719238 -1.07592773 26.13574219 C-1.19218487 23.34029844 -1.31477642 20.54516702 -1.4375 17.75 C-1.47681641 16.78191406 -1.51613281 15.81382813 -1.55664062 14.81640625 C-1.59853516 13.88183594 -1.64042969 12.94726562 -1.68359375 11.984375 C-1.72025146 11.12553711 -1.75690918 10.26669922 -1.79467773 9.38183594 C-1.92640425 7.00458117 -1.92640425 7.00458117 -2.60961914 4.79785156 C-2.73844482 4.20456055 -2.86727051 3.61126953 -3 3 C-1.5625 1.25 -1.5625 1.25 0 0 Z " fill="#CECFCF" transform="translate(27,20)"/>
<path d="M0 0 C0.33 0.99 0.66 1.98 1 3 C0 4 0 4 -3.37890625 4.09765625 C-4.77347077 4.09098369 -6.16801743 4.07902532 -7.5625 4.0625 C-8.27341797 4.05798828 -8.98433594 4.05347656 -9.71679688 4.04882812 C-11.47790013 4.03700864 -13.23896036 4.01907263 -15 4 C-15 3.34 -15 2.68 -15 2 C-10.05 1.34 -5.1 0.68 0 0 Z " fill="#767777" transform="translate(91,139)"/>
<path d="M0 0 C0.99 0.33 1.98 0.66 3 1 C2.3125 3.375 2.3125 3.375 1 6 C-1.625 7.3125 -1.625 7.3125 -4 8 C-4.33 7.01 -4.66 6.02 -5 5 C-4.01 4.67 -3.02 4.34 -2 4 C-0.79117904 1.99983534 -0.79117904 1.99983534 0 0 Z " fill="#E1E1E1" transform="translate(93,138)"/>
<path d="M0 0 C2.140625 0.40234375 2.140625 0.40234375 4 1 C3.38511719 1.59748047 3.38511719 1.59748047 2.7578125 2.20703125 C2.21898437 2.73683594 1.68015625 3.26664063 1.125 3.8125 C0.59132813 4.33457031 0.05765625 4.85664062 -0.4921875 5.39453125 C-2.20776561 7.13259904 -2.20776561 7.13259904 -4 10 C-4.33102914 6.3586795 -4.42019439 4.58527075 -2.25 1.5625 C-1.5075 1.046875 -0.765 0.53125 0 0 Z " fill="#9D9E9E" transform="translate(47,39)"/>
<path d="M0 0 C2.97 0.495 2.97 0.495 6 1 C4.68 1.33 3.36 1.66 2 2 C2 4.97 2 7.94 2 11 C1.01 11.495 1.01 11.495 0 12 C0 8.04 0 4.08 0 0 Z " fill="#4C4E4D" transform="translate(50,86)"/>
<path d="M0 0 C2.79651501 1.46817038 3.43411431 2.40553901 4.5 5.3125 C3.51 5.6425 2.52 5.9725 1.5 6.3125 C1.5 5.6525 1.5 4.9925 1.5 4.3125 C0.2934375 3.879375 0.2934375 3.879375 -0.9375 3.4375 C-3.5 2.3125 -3.5 2.3125 -4.5 0.3125 C-2.5 -0.6875 -2.5 -0.6875 0 0 Z " fill="#E0DFDF" transform="translate(91.5,19.6875)"/>
<path d="M0 0 C1.27230469 0.01804687 2.54460938 0.03609375 3.85546875 0.0546875 C5.31919922 0.08949219 5.31919922 0.08949219 6.8125 0.125 C6.8125 0.455 6.8125 0.785 6.8125 1.125 C5.63494141 1.16367187 5.63494141 1.16367187 4.43359375 1.203125 C-2.24468668 1.5636702 -6.69407692 2.25463374 -12.1875 6.125 C-9.55790225 0.0566975 -6.24824294 -0.11464666 0 0 Z " fill="#6B6C6C" transform="translate(36.1875,16.875)"/>
<path d="M0 0 C0.66 0.33 1.32 0.66 2 1 C2 4 2 4 1 6 C-1.0625 6.625 -1.0625 6.625 -3 7 C-2.25 2.25 -2.25 2.25 0 0 Z " fill="#DBDBDB" transform="translate(27,20)"/>
<path d="M0 0 C1.875 0.25 1.875 0.25 4 1 C5.3125 2.9375 5.3125 2.9375 6 5 C5.67 5.66 5.34 6.32 5 7 C4.34 7 3.68 7 3 7 C0.70351351 4.4385343 0 3.52032428 0 0 Z " fill="#DCDCDC" transform="translate(24,138)"/>
<path d="M0 0 C6.93 0.495 6.93 0.495 14 1 C14 1.33 14 1.66 14 2 C6.08 2.495 6.08 2.495 -2 3 C-1.34 2.01 -0.68 1.02 0 0 Z " fill="#ECECEC" transform="translate(30,19)"/>
<path d="" fill="#000000" transform="translate(0,0)"/>
</svg>
